<svg viewBox="0 0 604 133" xmlns="http://www.w3.org/2000/svg">
<polygon fill="#FF0000" points="0,0 523.296,0 603.396,133 0,133 "/>
<polygon fill="#FFFFFF" points="386.902,85.313 386.902,75.646 427.254,75.646 427.254,55.75 386.902,55.75 386.902,47.016 430.506,47.016 430.506,24.703 386.902,24.703 367.473,24.703 359.943,24.703 359.943,107.628 367.473,107.628 386.902,107.628 430.689,107.628 430.689,85.313 "/>
<path fill="#FFFFFF" d="M239.938,25.024H219.01l0,0h-27.295v82.915h27.295V84.186l20.631,0.014l0.308-0.014c14.4-0.558,25.676-13.514,25.676-29.495C265.624,38.754,254.349,25.572,239.938,25.024z M235.752,65.392l-16.742-0.011V46.965l16.742,0.004c4.541,0.177,8.179,4.154,8.179,9.165C243.931,61.144,240.298,65.215,235.752,65.392z"/>
<path fill="#FFFFFF" d="M333.727,78.896c9.949-4.054,16.912-14.123,16.912-25.989c0-15.071-11.281-27.288-25.686-27.81l-24.872-0.016v-0.011h-26.774v82.554h26.774V83.824h6.841l14.715,23.801h31.064L333.727,78.896z M316.104,65.381h-16.832l-0.094-18.416h16.926c4.645,0.157,8.365,4.612,8.365,9.169C324.469,60.687,320.75,65.221,316.104,65.381z"/>
<path fill="#FFFFFF" d="M487.793,56.332c-10.349-3.01-20.529-2.989-20.865-7.446c-0.158-2.102,0.648-4.252,8.286-4.252c9.3,0,18.747,5.78,22.89,8.503L511.067,34.5c-4.575-3.049-12.531-10.029-30.948-11.227c-26.631-1.73-40.371,10.822-40.655,27.246c-0.245,14.163,10.142,20.905,30.638,26.581c12.473,3.345,16.123,3.438,15.66,7.117c-0.471,3.838-6.99,3.715-14.244,3.235c-12.432-0.815-21.934-9.139-21.934-9.139l-14.588,17.354c5.371,3.838,19.018,11.01,35.164,13.514c28.717,4.455,43.801-13.044,43.921-26.717C514.234,65.11,500.226,59.896,487.793,56.332z"/>
<polygon fill="#FFFFFF" points="95.285,47.985 95.285,25.497 52.629,25.497 26.276,25.497 26.276,47.985 26.276,84.861 26.276,107.354 52.629,107.354 95.909,107.354 95.909,84.861 52.629,84.861 52.629,76.099 92.487,76.099 92.487,56.419 52.629,56.419 52.629,47.985 "/>
<polygon fill="#FED933" points="157.318,65.049 182.486,25 151.851,25 142.018,40.729 141.938,40.726 132.013,25 101.381,25 126.552,65.042 100.141,107 130.934,107 141.938,89.606 152.929,107 183.73,107 "/>
</svg>