<?xml version="1.0" encoding="UTF-8"?> <svg xmlns="http://www.w3.org/2000/svg" width="154" height="44"><!-- Created with Method Draw - http://github.com/duopixel/Method-Draw/ --><g><title>background</title><rect fill="#fff" id="canvas_background" height="46" width="156" y="-1" x="-1"></rect></g><g><title>Layer 1</title><g id="Layer_1"><g id="svg_30"><g id="svg_21"><rect id="svg_1" height="21.757" width="5.223" y="7.47878" x="0.00778"></rect><rect id="svg_2" height="4.909" width="5.223" y="0.21378" x="0.00778"></rect><path id="svg_3" d="m3.90078,36.83278c-0.466,-0.329 -1.018,-0.455 -1.96,-0.455l-1.939,0l0,7.068l1.43,0l0,-2.682c0.382,0.021 0.509,0.021 0.646,0.021c0.858,0 1.378,-0.126 1.833,-0.466c0.53,-0.401 0.848,-1.048 0.848,-1.758s-0.307,-1.336 -0.858,-1.728zm-1.25,2.712c-0.201,0.085 -0.477,0.126 -0.932,0.126c-0.063,0 -0.16,0 -0.287,-0.009l0,-2.206c0.699,0.011 0.826,0.011 1.028,0.066c0.498,0.125 0.785,0.507 0.785,1.047c-0.001,0.458 -0.213,0.796 -0.594,0.976z"></path><path id="svg_4" d="m12.55578,39.90478c0.9,-0.128 1.431,-0.741 1.431,-1.662c0,-0.616 -0.244,-1.135 -0.689,-1.454c-0.403,-0.295 -0.922,-0.412 -1.854,-0.412l-2.32,0l0,7.068l1.441,0l0,-2.936l0.339,0c0.667,0 0.891,0.18 1.176,0.933l0.773,2.003l1.589,0l-1.018,-2.458c-0.307,-0.721 -0.476,-0.933 -0.868,-1.082zm-1.367,-0.486l-0.635,0l0,-1.939l0.752,0c0.763,0 1.166,0.317 1.166,0.922c-0.001,0.666 -0.436,1.017 -1.283,1.017z"></path><path id="svg_5" d="m21.81478,36.21778c-1.039,0 -2.003,0.392 -2.575,1.039c-0.551,0.626 -0.869,1.6 -0.869,2.67c0,2.269 1.324,3.677 3.444,3.677c1.102,0 2.034,-0.392 2.617,-1.091c0.529,-0.625 0.848,-1.579 0.848,-2.563c0,-2.313 -1.314,-3.732 -3.465,-3.732zm1.462,5.499c-0.339,0.521 -0.837,0.795 -1.451,0.795c-1.155,0 -1.94,-1.049 -1.94,-2.595c0,-1.547 0.785,-2.606 1.929,-2.606c1.154,0 1.95,1.07 1.95,2.638c-0.001,0.646 -0.171,1.282 -0.488,1.768z"></path><polygon id="svg_6" points="29.955780029296875,43.44578170776367 31.397781372070312,43.44578170776367 31.397781372070312,40.37178039550781 33.78078079223633,40.37178039550781 33.78078079223633,39.21678161621094 31.38677978515625,39.21678161621094 31.38677978515625,37.53078079223633 33.87678146362305,37.53078079223633 33.87678146362305,36.37778091430664 29.955780029296875,36.37778091430664 "></polygon><rect id="svg_7" height="7.068" width="1.43" y="36.37778" x="38.45878"></rect><polygon id="svg_8" points="50.116783142089844,37.53078079223633 52.13078308105469,37.53078079223633 52.13078308105469,43.44578170776367 53.56078338623047,43.44578170776367 53.56078338623047,37.53078079223633 55.59477996826172,37.53078079223633 55.59477996826172,36.37778091430664 50.116783142089844,36.37778091430664 "></polygon><polygon id="svg_9" points="61.33678436279297,40.40378189086914 63.85877990722656,40.40378189086914 63.85877990722656,39.248783111572266 61.33678436279297,39.248783111572266 61.33678436279297,37.53078079223633 64.09178161621094,37.53078079223633 64.09178161621094,36.37778091430664 59.905784606933594,36.37778091430664 59.905784606933594,43.44578170776367 64.13378143310547,43.44578170776367 64.13378143310547,42.28977966308594 61.33678436279297,42.28977966308594 "></polygon><path id="svg_10" d="m72.31078,42.31178c-1.398,0 -2.374,-1.007 -2.374,-2.47c0,-1.462 0.901,-2.386 2.332,-2.386c0.562,0 1.006,0.117 1.494,0.383l0.117,-1.208c-0.742,-0.245 -1.123,-0.308 -1.749,-0.308c-1.102,0 -2.035,0.329 -2.712,0.964c-0.667,0.635 -0.997,1.484 -0.997,2.606c0,2.269 1.42,3.602 3.836,3.602c0.614,0 0.975,-0.051 1.653,-0.231l-0.053,-1.251c-0.54,0.203 -1.027,0.299 -1.547,0.299z"></path><polygon id="svg_11" points="82.64678192138672,39.248783111572266 79.83878326416016,39.248783111572266 79.83878326416016,36.37778091430664 78.40778350830078,36.37778091430664 78.40778350830078,43.44578170776367 79.83878326416016,43.44578170776367 79.83878326416016,40.40378189086914 82.64678192138672,40.40378189086914 82.64678192138672,43.44578170776367 84.0767822265625,43.44578170776367 84.0767822265625,36.37778091430664 82.64678192138672,36.37778091430664 "></polygon><path id="svg_12" d="m93.55678,40.16978c0,0.7 0,0.732 0.074,1.356c0.011,0.053 0.032,0.213 0.043,0.382c-0.043,-0.128 -0.086,-0.234 -0.105,-0.286c-0.129,-0.349 -0.192,-0.498 -0.425,-0.964l-2.361,-4.28l-1.686,0l0,7.068l1.356,0l0,-3.699c0,-0.455 -0.063,-1.134 -0.158,-1.823c0.212,0.531 0.358,0.838 0.582,1.25l2.31,4.271l1.727,0l0,-7.068l-1.356,0l0,3.793l-0.001,0z"></path><path id="svg_13" d="m103.03878,36.21778c-1.037,0 -2.002,0.392 -2.573,1.039c-0.552,0.626 -0.87,1.6 -0.87,2.67c0,2.269 1.323,3.677 3.443,3.677c1.104,0 2.035,-0.392 2.617,-1.091c0.53,-0.625 0.85,-1.579 0.85,-2.563c0,-2.313 -1.316,-3.732 -3.467,-3.732zm1.463,5.499c-0.34,0.521 -0.838,0.795 -1.453,0.795c-1.153,0 -1.938,-1.049 -1.938,-2.595c0,-1.547 0.785,-2.606 1.929,-2.606c1.155,0 1.949,1.07 1.949,2.638c0,0.646 -0.169,1.282 -0.487,1.768z"></path><polygon id="svg_14" points="112.61277770996094,36.37778091430664 111.18278503417969,36.37778091430664 111.18278503417969,43.44578170776367 115.36477661132812,43.44578170776367 115.36477661132812,42.28977966308594 112.61277770996094,42.28977966308594 "></polygon><path id="svg_15" d="m122.69878,36.21778c-1.04,0 -2.003,0.392 -2.575,1.039c-0.551,0.626 -0.869,1.6 -0.869,2.67c0,2.269 1.324,3.677 3.444,3.677c1.102,0 2.035,-0.392 2.616,-1.091c0.53,-0.625 0.849,-1.579 0.849,-2.563c0,-2.313 -1.313,-3.732 -3.465,-3.732zm1.462,5.499c-0.339,0.521 -0.837,0.795 -1.45,0.795c-1.157,0 -1.939,-1.049 -1.939,-2.595c0,-1.547 0.782,-2.606 1.928,-2.606c1.155,0 1.949,1.07 1.949,2.638c0,0.646 -0.169,1.282 -0.488,1.768z"></path><path id="svg_16" d="m133.80178,40.49778l1.505,0l0,1.717c-0.36,0.117 -0.552,0.149 -0.878,0.149c-1.454,0 -2.396,-0.976 -2.396,-2.479c0,-1.516 0.921,-2.417 2.468,-2.417c0.688,0 1.262,0.117 1.877,0.393l0.095,-1.251c-0.625,-0.189 -1.24,-0.286 -1.949,-0.286c-2.47,0 -4.005,1.356 -4.005,3.55c0,1.145 0.411,2.193 1.1,2.796c0.616,0.542 1.526,0.827 2.671,0.827c0.88,0 1.653,-0.115 2.375,-0.369l0,-3.783l-2.862,0l0,1.153l-0.001,0z"></path><rect id="svg_17" height="7.068" width="1.432" y="36.37778" x="141.63478"></rect><polygon id="svg_18" points="149.52978515625,42.28977966308594 149.52978515625,40.40378189086914 152.05078125,40.40378189086914 152.05078125,39.248783111572266 149.52978515625,39.248783111572266 149.52978515625,37.53078079223633 152.28477478027344,37.53078079223633 152.28477478027344,36.37778091430664 148.09878540039062,36.37778091430664 148.09878540039062,43.44578170776367 152.32577514648438,43.44578170776367 152.32577514648438,42.28977966308594 "></polygon><path id="svg_19" d="m22.50878,13.13378c0.297,0.394 0.52,0.917 0.684,1.591l5.453,0c-0.182,-2.08 -0.618,-3.406 -1.462,-4.614c-1.414,-2.043 -3.77,-3.144 -6.793,-3.144c-2.475,0 -4.46,1.022 -6.126,3.445l0,-2.934l-4.83,0l0,21.757l5.223,0l0,-10.248c0,-2.907 0.196,-4.164 0.864,-5.223c0.825,-1.299 2.198,-2.004 3.849,-2.004c1.332,0 2.431,0.472 3.138,1.374z"></path><rect id="svg_20" height="9.544" width="5.222" y="19.69078" x="23.52978"></rect></g><g id="svg_29"><path id="svg_22" d="m82.99178,10.67978c-1.806,-2.396 -3.965,-3.417 -7.108,-3.417c-6.44,0 -11.074,4.831 -11.074,11.467c0,6.558 4.595,11.308 10.957,11.308c3.064,0 5.146,-0.982 7.226,-3.337l0,2.828l4.792,0l0,-21.754l-4.792,0l0,2.905l-0.001,0zm-1.727,12.605c-1.061,1.258 -2.75,1.963 -4.751,1.963c-3.809,0 -6.44,-2.591 -6.44,-6.4c0,-3.967 2.631,-6.795 6.362,-6.795c3.73,0 6.401,2.789 6.401,6.755c-0.001,1.571 -0.63,3.377 -1.572,4.477z" fill="#EC6608"></path><polygon id="svg_23" points="114.58677673339844,0.5077810287475586 109.36378479003906,0.5077810287475586 109.36378479003906,7.774781227111816 105.95777893066406,7.774781227111816 105.95777893066406,12.525781631469727 109.36378479003906,12.525781631469727 109.36378479003906,29.52878189086914 114.58677673339844,29.52878189086914 114.58677673339844,12.525781631469727 118.57978820800781,12.525781631469727 118.57978820800781,7.774781227111816 114.58677673339844,7.774781227111816 " fill="#EC6608"></polygon><path id="svg_24" d="m40.23478,8.04778c1.688,-1.845 4.241,-2.865 7.03,-2.865c3.377,0 6.165,1.333 7.971,3.847l6.322,0c-1.885,-5.222 -7.853,-9.031 -14.176,-9.031c-8.4,0 -15.135,6.51 -15.264,14.727l5.424,0c0.084,-2.427 1.113,-5.021 2.693,-6.678z" fill="#EC6608"></path><path id="svg_25" d="m44.08378,19.75078l12.017,0c-1.571,3.222 -4.712,5.106 -8.522,5.106c-3.947,0 -7.249,-2.059 -8.905,-5.166l-5.804,0c2.017,6.079 7.856,10.348 15.022,10.348c4.36,0 8.129,-1.53 10.997,-4.477c2.669,-2.787 4.162,-6.401 4.162,-10.131l0,-0.706l-18.967,0l0,5.026z" fill="#EC6608"></path><path id="svg_26" d="m133.68278,7.97478c0,0 -2.65,-1.278 -4.852,-0.711c-1.143,0.293 -2.125,0.546 -3.357,2.187c-0.215,0.266 -0.324,0.444 -0.324,0.444l0,-2.12l-4.791,0l0,21.754l5.222,0l0,-13.047c0,-3.377 2.291,-4.227 4.529,-4.193c0,0 0.84,-1.178 1.796,-2.256c0.76,-0.862 1.777,-2.058 1.777,-2.058z" fill="#EC6608"></path><path id="svg_27" d="m142.31678,7.26378c-6.322,0 -11.506,5.145 -11.506,11.389c0,6.282 5.184,11.386 11.546,11.386c6.321,0 11.584,-5.104 11.584,-11.23c0,-6.48 -5.067,-11.545 -11.624,-11.545zm0.079,17.984c-3.534,0 -6.323,-2.945 -6.323,-6.675c0,-3.573 2.866,-6.52 6.284,-6.52c3.494,0 6.321,2.985 6.321,6.599c0,3.651 -2.827,6.596 -6.282,6.596z" fill="#EC6608"></path><path id="svg_28" d="m103.43378,18.10078c-0.824,-0.706 -2.12,-1.255 -4.006,-1.845c-2.12,-0.667 -2.12,-0.667 -2.631,-0.905c-0.707,-0.313 -1.06,-0.823 -1.06,-1.451c0,-1.062 0.863,-1.847 2.004,-1.847c0.579,0 1.046,0.169 1.396,0.491l0,-0.008l5.622,0c-0.205,-1.15 -0.645,-1.992 -1.443,-2.878c-1.374,-1.53 -3.417,-2.394 -5.574,-2.394c-4.047,0 -7.227,2.905 -7.227,6.637c0,3.18 1.728,4.986 6.046,6.439c2.003,0.667 2.161,0.745 2.713,1.099c0.625,0.393 0.98,0.981 0.98,1.689c0,1.218 -1.021,2.12 -2.357,2.12c-0.992,0 -1.7,-0.336 -2.217,-1.068l-5.703,0c0.24,1.163 0.587,1.993 1.205,2.835c1.415,1.886 3.888,3.023 6.519,3.023c4.358,0 7.775,-3.257 7.775,-7.421c0,-1.883 -0.705,-3.456 -2.042,-4.516z" fill="#EC6608"></path></g></g></g></g></svg> 